<mxfile host="Electron" agent="Mozilla/5.0 (Macintosh; Intel Mac OS X 10_15_7) AppleWebKit/537.36 (KHTML, like Gecko) draw.io/25.0.2 Chrome/128.0.6613.186 Electron/32.2.5 Safari/537.36" version="25.0.2">
  <diagram name="Side-1" id="lfsr8z0jhmh-c3K9n56A">
    <mxGraphModel dx="1468" dy="1118" grid="1" gridSize="10" guides="1" tooltips="1" connect="1" arrows="1" fold="1" page="1" pageScale="1" pageWidth="827" pageHeight="1169" math="0" shadow="0">
      <root>
        <mxCell id="0" />
        <mxCell id="1" parent="0" />
        <mxCell id="8awPuD_sSp3ZbCrrZhAp-2" value="&lt;font style=&quot;font-size: 20px;&quot;&gt;Chirp.Web&lt;/font&gt;" style="shape=umlFrame;whiteSpace=wrap;html=1;pointerEvents=0;recursiveResize=0;container=1;collapsible=0;width=150;height=40;" vertex="1" parent="1">
          <mxGeometry x="280" y="190" width="460" height="450" as="geometry" />
        </mxCell>
        <mxCell id="8awPuD_sSp3ZbCrrZhAp-22" value="&lt;span style=&quot;background-color: initial;&quot;&gt;&lt;font style=&quot;font-size: 18px;&quot;&gt;Pages&lt;/font&gt;&lt;/span&gt;" style="shape=umlFrame;whiteSpace=wrap;html=1;pointerEvents=0;recursiveResize=0;container=1;collapsible=0;width=85;height=30;" vertex="1" parent="8awPuD_sSp3ZbCrrZhAp-2">
          <mxGeometry x="40" y="175" width="160" height="90" as="geometry" />
        </mxCell>
        <mxCell id="8awPuD_sSp3ZbCrrZhAp-28" value="&lt;font style=&quot;font-size: 16px;&quot;&gt;Use&lt;/font&gt;" style="endArrow=open;endSize=12;dashed=1;html=1;rounded=0;exitX=0.5;exitY=0;exitDx=0;exitDy=0;" edge="1" parent="8awPuD_sSp3ZbCrrZhAp-2" source="8awPuD_sSp3ZbCrrZhAp-42">
          <mxGeometry width="160" relative="1" as="geometry">
            <mxPoint x="364" y="326" as="sourcePoint" />
            <mxPoint x="345" y="256" as="targetPoint" />
          </mxGeometry>
        </mxCell>
        <mxCell id="8awPuD_sSp3ZbCrrZhAp-29" value="&lt;font style=&quot;font-size: 16px;&quot;&gt;Use&lt;/font&gt;" style="endArrow=open;endSize=12;dashed=1;html=1;rounded=0;exitX=0.5;exitY=0;exitDx=0;exitDy=0;entryX=0.637;entryY=0.996;entryDx=0;entryDy=0;entryPerimeter=0;" edge="1" parent="8awPuD_sSp3ZbCrrZhAp-2" target="8awPuD_sSp3ZbCrrZhAp-40">
          <mxGeometry x="0.0202" width="160" relative="1" as="geometry">
            <mxPoint x="364" y="198" as="sourcePoint" />
            <mxPoint x="366" y="140" as="targetPoint" />
            <mxPoint as="offset" />
          </mxGeometry>
        </mxCell>
        <mxCell id="8awPuD_sSp3ZbCrrZhAp-40" value="&lt;b&gt;&lt;font style=&quot;font-size: 18px;&quot;&gt;DbInitializer&lt;/font&gt;&lt;/b&gt;" style="html=1;whiteSpace=wrap;" vertex="1" parent="8awPuD_sSp3ZbCrrZhAp-2">
          <mxGeometry x="270" y="40" width="140" height="80" as="geometry" />
        </mxCell>
        <mxCell id="8awPuD_sSp3ZbCrrZhAp-41" value="&lt;b&gt;&lt;font style=&quot;font-size: 18px;&quot;&gt;Startup&lt;/font&gt;&lt;/b&gt;" style="html=1;whiteSpace=wrap;" vertex="1" parent="8awPuD_sSp3ZbCrrZhAp-2">
          <mxGeometry x="270" y="190" width="160" height="60" as="geometry" />
        </mxCell>
        <mxCell id="8awPuD_sSp3ZbCrrZhAp-42" value="&lt;b&gt;&lt;font style=&quot;font-size: 18px;&quot;&gt;Program&lt;/font&gt;&lt;/b&gt;" style="html=1;whiteSpace=wrap;" vertex="1" parent="8awPuD_sSp3ZbCrrZhAp-2">
          <mxGeometry x="280" y="334" width="130" height="70" as="geometry" />
        </mxCell>
        <mxCell id="8awPuD_sSp3ZbCrrZhAp-30" value="&lt;font style=&quot;font-size: 20px;&quot;&gt;Chirp.Test&lt;/font&gt;" style="shape=umlFrame;whiteSpace=wrap;html=1;pointerEvents=0;recursiveResize=0;container=1;collapsible=0;width=160;" vertex="1" parent="1">
          <mxGeometry x="280" y="740" width="330" height="240" as="geometry" />
        </mxCell>
        <mxCell id="8awPuD_sSp3ZbCrrZhAp-31" value="&lt;font style=&quot;font-size: 16px;&quot;&gt;Chirp.Infrastructure.Test&lt;/font&gt;" style="shape=umlFrame;whiteSpace=wrap;html=1;pointerEvents=0;recursiveResize=0;container=1;collapsible=0;width=180;height=40;" vertex="1" parent="8awPuD_sSp3ZbCrrZhAp-30">
          <mxGeometry x="60" y="50" width="230" height="70" as="geometry" />
        </mxCell>
        <mxCell id="8awPuD_sSp3ZbCrrZhAp-32" value="&lt;font style=&quot;font-size: 16px;&quot;&gt;Chirp.Web.Test&lt;/font&gt;" style="shape=umlFrame;whiteSpace=wrap;html=1;pointerEvents=0;recursiveResize=0;container=1;collapsible=0;width=160;height=30;" vertex="1" parent="8awPuD_sSp3ZbCrrZhAp-30">
          <mxGeometry x="60" y="150" width="230" height="70" as="geometry" />
        </mxCell>
        <mxCell id="8awPuD_sSp3ZbCrrZhAp-33" value="&lt;font style=&quot;font-size: 16px;&quot;&gt;Use&lt;/font&gt;" style="endArrow=open;endSize=12;dashed=1;html=1;rounded=0;entryX=0.371;entryY=0.996;entryDx=0;entryDy=0;entryPerimeter=0;exitX=0.506;exitY=-0.019;exitDx=0;exitDy=0;exitPerimeter=0;" edge="1" parent="1" source="8awPuD_sSp3ZbCrrZhAp-30" target="8awPuD_sSp3ZbCrrZhAp-2">
          <mxGeometry width="160" relative="1" as="geometry">
            <mxPoint x="540" y="730" as="sourcePoint" />
            <mxPoint x="700" y="730" as="targetPoint" />
          </mxGeometry>
        </mxCell>
        <mxCell id="8awPuD_sSp3ZbCrrZhAp-35" value="&lt;font style=&quot;font-size: 20px;&quot;&gt;Chirp.Infrastructure&lt;/font&gt;" style="shape=umlFrame;whiteSpace=wrap;html=1;pointerEvents=0;recursiveResize=0;container=1;collapsible=0;width=210;height=40;" vertex="1" parent="1">
          <mxGeometry x="890" y="90" width="780" height="710" as="geometry" />
        </mxCell>
        <mxCell id="8awPuD_sSp3ZbCrrZhAp-43" value="&lt;b&gt;&lt;font style=&quot;font-size: 18px;&quot;&gt;ChirpDBContext&lt;/font&gt;&lt;/b&gt;" style="html=1;whiteSpace=wrap;" vertex="1" parent="8awPuD_sSp3ZbCrrZhAp-35">
          <mxGeometry x="225" y="20" width="150" height="60" as="geometry" />
        </mxCell>
        <mxCell id="8awPuD_sSp3ZbCrrZhAp-51" value="&lt;font style=&quot;font-size: 18px;&quot;&gt;Authors&lt;/font&gt;" style="shape=umlFrame;whiteSpace=wrap;html=1;pointerEvents=0;recursiveResize=0;container=1;collapsible=0;width=160;" vertex="1" parent="8awPuD_sSp3ZbCrrZhAp-35">
          <mxGeometry x="40" y="100" width="710" height="200" as="geometry" />
        </mxCell>
        <mxCell id="8awPuD_sSp3ZbCrrZhAp-63" value="&lt;font style=&quot;font-size: 18px;&quot;&gt;&lt;b&gt;IAuthorService&lt;/b&gt;&lt;/font&gt;" style="html=1;whiteSpace=wrap;" vertex="1" parent="8awPuD_sSp3ZbCrrZhAp-51">
          <mxGeometry x="70" y="40" width="170" height="40" as="geometry" />
        </mxCell>
        <mxCell id="8awPuD_sSp3ZbCrrZhAp-64" value="&lt;font style=&quot;font-size: 18px;&quot;&gt;&lt;b&gt;IAuthorRepository&lt;/b&gt;&lt;/font&gt;" style="html=1;whiteSpace=wrap;" vertex="1" parent="8awPuD_sSp3ZbCrrZhAp-51">
          <mxGeometry x="450" y="40" width="190" height="40" as="geometry" />
        </mxCell>
        <mxCell id="8awPuD_sSp3ZbCrrZhAp-67" value="&lt;font style=&quot;font-size: 18px;&quot;&gt;&lt;b&gt;AuthorService&lt;/b&gt;&lt;/font&gt;" style="html=1;whiteSpace=wrap;" vertex="1" parent="8awPuD_sSp3ZbCrrZhAp-51">
          <mxGeometry x="70" y="140" width="170" height="40" as="geometry" />
        </mxCell>
        <mxCell id="8awPuD_sSp3ZbCrrZhAp-69" value="&lt;font style=&quot;font-size: 18px;&quot;&gt;&lt;b&gt;AuthorRepository&lt;/b&gt;&lt;/font&gt;" style="html=1;whiteSpace=wrap;" vertex="1" parent="8awPuD_sSp3ZbCrrZhAp-51">
          <mxGeometry x="450" y="140" width="190" height="40" as="geometry" />
        </mxCell>
        <mxCell id="8awPuD_sSp3ZbCrrZhAp-70" value="" style="endArrow=block;dashed=1;endFill=0;endSize=12;html=1;rounded=0;exitX=0.436;exitY=-0.025;exitDx=0;exitDy=0;exitPerimeter=0;entryX=0.436;entryY=0.975;entryDx=0;entryDy=0;entryPerimeter=0;" edge="1" parent="8awPuD_sSp3ZbCrrZhAp-51" source="8awPuD_sSp3ZbCrrZhAp-67" target="8awPuD_sSp3ZbCrrZhAp-63">
          <mxGeometry width="160" relative="1" as="geometry">
            <mxPoint x="230" y="110" as="sourcePoint" />
            <mxPoint x="390" y="110" as="targetPoint" />
          </mxGeometry>
        </mxCell>
        <mxCell id="8awPuD_sSp3ZbCrrZhAp-71" value="" style="endArrow=block;dashed=1;endFill=0;endSize=12;html=1;rounded=0;exitX=0.436;exitY=-0.025;exitDx=0;exitDy=0;exitPerimeter=0;entryX=0.436;entryY=0.975;entryDx=0;entryDy=0;entryPerimeter=0;" edge="1" parent="8awPuD_sSp3ZbCrrZhAp-51">
          <mxGeometry width="160" relative="1" as="geometry">
            <mxPoint x="544.1700000000001" y="140" as="sourcePoint" />
            <mxPoint x="544.1700000000001" y="80" as="targetPoint" />
          </mxGeometry>
        </mxCell>
        <mxCell id="8awPuD_sSp3ZbCrrZhAp-82" value="&lt;font style=&quot;font-size: 16px;&quot;&gt;Use&lt;/font&gt;" style="endArrow=open;endSize=12;dashed=1;html=1;rounded=0;exitX=1;exitY=0;exitDx=0;exitDy=0;entryX=0;entryY=1;entryDx=0;entryDy=0;" edge="1" parent="8awPuD_sSp3ZbCrrZhAp-51" source="8awPuD_sSp3ZbCrrZhAp-67" target="8awPuD_sSp3ZbCrrZhAp-64">
          <mxGeometry width="160" relative="1" as="geometry">
            <mxPoint x="200" y="140" as="sourcePoint" />
            <mxPoint x="310" y="90" as="targetPoint" />
          </mxGeometry>
        </mxCell>
        <mxCell id="8awPuD_sSp3ZbCrrZhAp-52" value="&lt;font style=&quot;font-size: 18px;&quot;&gt;Cheeps&lt;/font&gt;" style="shape=umlFrame;whiteSpace=wrap;html=1;pointerEvents=0;recursiveResize=0;container=1;collapsible=0;width=160;" vertex="1" parent="8awPuD_sSp3ZbCrrZhAp-35">
          <mxGeometry x="40" y="320" width="710" height="210" as="geometry" />
        </mxCell>
        <mxCell id="8awPuD_sSp3ZbCrrZhAp-72" value="&lt;font style=&quot;font-size: 18px;&quot;&gt;&lt;b&gt;ICheepService&lt;/b&gt;&lt;/font&gt;" style="html=1;whiteSpace=wrap;" vertex="1" parent="8awPuD_sSp3ZbCrrZhAp-52">
          <mxGeometry x="40" y="40" width="170" height="40" as="geometry" />
        </mxCell>
        <mxCell id="8awPuD_sSp3ZbCrrZhAp-73" value="&lt;font style=&quot;font-size: 18px;&quot;&gt;&lt;b&gt;ICheepRepository&lt;/b&gt;&lt;/font&gt;" style="html=1;whiteSpace=wrap;" vertex="1" parent="8awPuD_sSp3ZbCrrZhAp-52">
          <mxGeometry x="450" y="40" width="190" height="40" as="geometry" />
        </mxCell>
        <mxCell id="8awPuD_sSp3ZbCrrZhAp-74" value="&lt;font style=&quot;font-size: 18px;&quot;&gt;&lt;b&gt;CheepService&lt;/b&gt;&lt;/font&gt;" style="html=1;whiteSpace=wrap;" vertex="1" parent="8awPuD_sSp3ZbCrrZhAp-52">
          <mxGeometry x="40" y="140" width="170" height="40" as="geometry" />
        </mxCell>
        <mxCell id="8awPuD_sSp3ZbCrrZhAp-75" value="&lt;font style=&quot;font-size: 18px;&quot;&gt;&lt;b&gt;CheepRepository&lt;/b&gt;&lt;/font&gt;" style="html=1;whiteSpace=wrap;" vertex="1" parent="8awPuD_sSp3ZbCrrZhAp-52">
          <mxGeometry x="450" y="140" width="190" height="40" as="geometry" />
        </mxCell>
        <mxCell id="8awPuD_sSp3ZbCrrZhAp-76" value="" style="endArrow=block;dashed=1;endFill=0;endSize=12;html=1;rounded=0;exitX=0.436;exitY=-0.025;exitDx=0;exitDy=0;exitPerimeter=0;entryX=0.436;entryY=0.975;entryDx=0;entryDy=0;entryPerimeter=0;" edge="1" parent="8awPuD_sSp3ZbCrrZhAp-52" source="8awPuD_sSp3ZbCrrZhAp-74" target="8awPuD_sSp3ZbCrrZhAp-72">
          <mxGeometry width="160" relative="1" as="geometry">
            <mxPoint x="200" y="110" as="sourcePoint" />
            <mxPoint x="360" y="110" as="targetPoint" />
          </mxGeometry>
        </mxCell>
        <mxCell id="8awPuD_sSp3ZbCrrZhAp-77" value="" style="endArrow=block;dashed=1;endFill=0;endSize=12;html=1;rounded=0;exitX=0.436;exitY=-0.025;exitDx=0;exitDy=0;exitPerimeter=0;entryX=0.436;entryY=0.975;entryDx=0;entryDy=0;entryPerimeter=0;" edge="1" parent="8awPuD_sSp3ZbCrrZhAp-52">
          <mxGeometry width="160" relative="1" as="geometry">
            <mxPoint x="544.1700000000001" y="140" as="sourcePoint" />
            <mxPoint x="544.1700000000001" y="80" as="targetPoint" />
          </mxGeometry>
        </mxCell>
        <mxCell id="8awPuD_sSp3ZbCrrZhAp-81" value="&lt;font style=&quot;font-size: 16px;&quot;&gt;Use&lt;/font&gt;" style="endArrow=open;endSize=12;dashed=1;html=1;rounded=0;exitX=1;exitY=0;exitDx=0;exitDy=0;entryX=0;entryY=1;entryDx=0;entryDy=0;" edge="1" parent="8awPuD_sSp3ZbCrrZhAp-52" source="8awPuD_sSp3ZbCrrZhAp-74" target="8awPuD_sSp3ZbCrrZhAp-73">
          <mxGeometry width="160" relative="1" as="geometry">
            <mxPoint x="220" y="130" as="sourcePoint" />
            <mxPoint x="380" y="130" as="targetPoint" />
          </mxGeometry>
        </mxCell>
        <mxCell id="8awPuD_sSp3ZbCrrZhAp-85" value="&lt;font style=&quot;font-size: 18px;&quot;&gt;External&lt;/font&gt;" style="shape=umlFrame;whiteSpace=wrap;html=1;pointerEvents=0;recursiveResize=0;container=1;collapsible=0;width=160;" vertex="1" parent="8awPuD_sSp3ZbCrrZhAp-35">
          <mxGeometry x="40" y="540" width="710" height="160" as="geometry" />
        </mxCell>
        <mxCell id="8awPuD_sSp3ZbCrrZhAp-87" value="&lt;span style=&quot;font-size: 18px;&quot;&gt;&lt;b&gt;IOptionalBlobServiceClient&lt;/b&gt;&lt;/span&gt;" style="html=1;whiteSpace=wrap;" vertex="1" parent="8awPuD_sSp3ZbCrrZhAp-85">
          <mxGeometry x="10" y="40" width="280" height="40" as="geometry" />
        </mxCell>
        <mxCell id="8awPuD_sSp3ZbCrrZhAp-88" value="&lt;span style=&quot;font-size: 18px;&quot;&gt;&lt;b&gt;OptionalBlobServiceClient&lt;/b&gt;&lt;/span&gt;" style="html=1;whiteSpace=wrap;" vertex="1" parent="8awPuD_sSp3ZbCrrZhAp-85">
          <mxGeometry x="10" y="110" width="280" height="40" as="geometry" />
        </mxCell>
        <mxCell id="8awPuD_sSp3ZbCrrZhAp-89" value="" style="endArrow=block;dashed=1;endFill=0;endSize=12;html=1;rounded=0;exitX=0.436;exitY=-0.025;exitDx=0;exitDy=0;exitPerimeter=0;entryX=0.432;entryY=0.954;entryDx=0;entryDy=0;entryPerimeter=0;" edge="1" parent="8awPuD_sSp3ZbCrrZhAp-85" source="8awPuD_sSp3ZbCrrZhAp-88" target="8awPuD_sSp3ZbCrrZhAp-87">
          <mxGeometry width="160" relative="1" as="geometry">
            <mxPoint x="170" y="90" as="sourcePoint" />
            <mxPoint x="84" y="80" as="targetPoint" />
          </mxGeometry>
        </mxCell>
        <mxCell id="8awPuD_sSp3ZbCrrZhAp-44" value="&lt;font style=&quot;font-size: 16px;&quot;&gt;Use&lt;/font&gt;" style="endArrow=open;endSize=12;dashed=1;html=1;rounded=0;exitX=0.993;exitY=0.492;exitDx=0;exitDy=0;exitPerimeter=0;" edge="1" parent="1" source="8awPuD_sSp3ZbCrrZhAp-30">
          <mxGeometry width="160" relative="1" as="geometry">
            <mxPoint x="460" y="860" as="sourcePoint" />
            <mxPoint x="1118" y="800" as="targetPoint" />
            <Array as="points">
              <mxPoint x="820" y="860" />
              <mxPoint x="1120" y="860" />
            </Array>
          </mxGeometry>
        </mxCell>
        <mxCell id="8awPuD_sSp3ZbCrrZhAp-46" value="&lt;font style=&quot;font-size: 16px;&quot;&gt;Use&lt;/font&gt;" style="endArrow=open;endSize=12;dashed=1;html=1;rounded=0;exitX=0.5;exitY=0;exitDx=0;exitDy=0;" edge="1" parent="1" source="8awPuD_sSp3ZbCrrZhAp-40">
          <mxGeometry width="160" relative="1" as="geometry">
            <mxPoint x="760" y="250" as="sourcePoint" />
            <mxPoint x="1210" y="120" as="targetPoint" />
            <Array as="points">
              <mxPoint x="620" y="50" />
              <mxPoint x="1210" y="50" />
            </Array>
          </mxGeometry>
        </mxCell>
        <mxCell id="8awPuD_sSp3ZbCrrZhAp-48" value="&lt;font style=&quot;font-size: 20px;&quot;&gt;Chirp.Core&lt;/font&gt;" style="shape=umlFrame;whiteSpace=wrap;html=1;pointerEvents=0;recursiveResize=0;container=1;collapsible=0;width=160;" vertex="1" parent="1">
          <mxGeometry x="1760" y="420" width="470" height="130" as="geometry" />
        </mxCell>
        <mxCell id="8awPuD_sSp3ZbCrrZhAp-94" value="&lt;font style=&quot;font-size: 18px;&quot;&gt;&lt;b style=&quot;&quot;&gt;Author&lt;/b&gt;&lt;/font&gt;" style="html=1;whiteSpace=wrap;" vertex="1" parent="8awPuD_sSp3ZbCrrZhAp-48">
          <mxGeometry x="310" y="50" width="110" height="50" as="geometry" />
        </mxCell>
        <mxCell id="8awPuD_sSp3ZbCrrZhAp-95" value="&lt;font style=&quot;font-size: 18px;&quot;&gt;&lt;b style=&quot;&quot;&gt;Cheep&lt;/b&gt;&lt;/font&gt;" style="html=1;whiteSpace=wrap;" vertex="1" parent="8awPuD_sSp3ZbCrrZhAp-48">
          <mxGeometry x="40" y="50" width="110" height="50" as="geometry" />
        </mxCell>
        <mxCell id="8awPuD_sSp3ZbCrrZhAp-97" value="&lt;font style=&quot;font-size: 16px;&quot;&gt;Relation&lt;/font&gt;" style="endArrow=open;html=1;endSize=12;startArrow=diamondThin;startSize=14;startFill=0;edgeStyle=orthogonalEdgeStyle;rounded=0;" edge="1" parent="8awPuD_sSp3ZbCrrZhAp-48">
          <mxGeometry relative="1" as="geometry">
            <mxPoint x="150" y="74.17000000000002" as="sourcePoint" />
            <mxPoint x="310" y="74.17000000000002" as="targetPoint" />
          </mxGeometry>
        </mxCell>
        <mxCell id="8awPuD_sSp3ZbCrrZhAp-98" value="&lt;font style=&quot;font-size: 16px;&quot;&gt;0..n&lt;/font&gt;" style="edgeLabel;resizable=0;html=1;align=left;verticalAlign=top;" connectable="0" vertex="1" parent="8awPuD_sSp3ZbCrrZhAp-97">
          <mxGeometry x="-1" relative="1" as="geometry" />
        </mxCell>
        <mxCell id="8awPuD_sSp3ZbCrrZhAp-99" value="&lt;font style=&quot;font-size: 16px;&quot;&gt;1&lt;/font&gt;" style="edgeLabel;resizable=0;html=1;align=right;verticalAlign=top;" connectable="0" vertex="1" parent="8awPuD_sSp3ZbCrrZhAp-97">
          <mxGeometry x="1" relative="1" as="geometry" />
        </mxCell>
        <mxCell id="8awPuD_sSp3ZbCrrZhAp-78" value="&lt;font style=&quot;font-size: 16px;&quot;&gt;Use&lt;/font&gt;" style="endArrow=open;endSize=12;dashed=1;html=1;rounded=0;entryX=0;entryY=0.5;entryDx=0;entryDy=0;" edge="1" parent="1" target="8awPuD_sSp3ZbCrrZhAp-63">
          <mxGeometry width="160" relative="1" as="geometry">
            <mxPoint x="750" y="330" as="sourcePoint" />
            <mxPoint x="930" y="390" as="targetPoint" />
          </mxGeometry>
        </mxCell>
        <mxCell id="8awPuD_sSp3ZbCrrZhAp-80" value="&lt;font style=&quot;font-size: 16px;&quot;&gt;Use&lt;/font&gt;" style="endArrow=open;endSize=12;dashed=1;html=1;rounded=0;exitX=1.019;exitY=0.556;exitDx=0;exitDy=0;exitPerimeter=0;entryX=0;entryY=0.5;entryDx=0;entryDy=0;" edge="1" parent="1" source="8awPuD_sSp3ZbCrrZhAp-2" target="8awPuD_sSp3ZbCrrZhAp-72">
          <mxGeometry width="160" relative="1" as="geometry">
            <mxPoint x="760" y="510" as="sourcePoint" />
            <mxPoint x="920" y="510" as="targetPoint" />
          </mxGeometry>
        </mxCell>
        <mxCell id="8awPuD_sSp3ZbCrrZhAp-90" value="&lt;font style=&quot;font-size: 16px;&quot;&gt;Use&lt;/font&gt;" style="endArrow=open;endSize=12;dashed=1;html=1;rounded=0;exitX=1.005;exitY=0.881;exitDx=0;exitDy=0;exitPerimeter=0;entryX=0;entryY=0.25;entryDx=0;entryDy=0;" edge="1" parent="1" source="8awPuD_sSp3ZbCrrZhAp-2" target="8awPuD_sSp3ZbCrrZhAp-87">
          <mxGeometry width="160" relative="1" as="geometry">
            <mxPoint x="759" y="590" as="sourcePoint" />
            <mxPoint x="960" y="630" as="targetPoint" />
          </mxGeometry>
        </mxCell>
        <mxCell id="8awPuD_sSp3ZbCrrZhAp-101" value="&lt;font style=&quot;font-size: 16px;&quot;&gt;Use&lt;/font&gt;" style="endArrow=open;endSize=12;dashed=1;html=1;rounded=0;exitX=1;exitY=0.5;exitDx=0;exitDy=0;entryX=-0.001;entryY=0.806;entryDx=0;entryDy=0;entryPerimeter=0;" edge="1" parent="1" source="8awPuD_sSp3ZbCrrZhAp-75" target="8awPuD_sSp3ZbCrrZhAp-48">
          <mxGeometry x="0.0015" width="160" relative="1" as="geometry">
            <mxPoint x="1470" y="590" as="sourcePoint" />
            <mxPoint x="1630" y="590" as="targetPoint" />
            <mxPoint as="offset" />
          </mxGeometry>
        </mxCell>
        <mxCell id="8awPuD_sSp3ZbCrrZhAp-102" value="&lt;font style=&quot;font-size: 16px;&quot;&gt;Use&lt;/font&gt;" style="endArrow=open;endSize=12;dashed=1;html=1;rounded=0;exitX=1;exitY=0.5;exitDx=0;exitDy=0;entryX=-0.005;entryY=0.306;entryDx=0;entryDy=0;entryPerimeter=0;" edge="1" parent="1" source="8awPuD_sSp3ZbCrrZhAp-69" target="8awPuD_sSp3ZbCrrZhAp-48">
          <mxGeometry x="0.0015" width="160" relative="1" as="geometry">
            <mxPoint x="1520" y="325" as="sourcePoint" />
            <mxPoint x="1688" y="270" as="targetPoint" />
            <mxPoint as="offset" />
          </mxGeometry>
        </mxCell>
        <mxCell id="8awPuD_sSp3ZbCrrZhAp-103" value="&lt;font style=&quot;font-size: 16px;&quot;&gt;Use&lt;/font&gt;" style="endArrow=open;endSize=12;dashed=1;html=1;rounded=0;exitX=1;exitY=0.5;exitDx=0;exitDy=0;entryX=0.3;entryY=-0.002;entryDx=0;entryDy=0;entryPerimeter=0;" edge="1" parent="1" source="8awPuD_sSp3ZbCrrZhAp-43" target="8awPuD_sSp3ZbCrrZhAp-48">
          <mxGeometry x="0.0013" width="160" relative="1" as="geometry">
            <mxPoint x="1290" y="140" as="sourcePoint" />
            <mxPoint x="1900" y="140" as="targetPoint" />
            <Array as="points">
              <mxPoint x="1901" y="140" />
            </Array>
            <mxPoint as="offset" />
          </mxGeometry>
        </mxCell>
      </root>
    </mxGraphModel>
  </diagram>
</mxfile>
